<svg width="18" height="18" viewBox="0 0 18 18" fill="none" xmlns="http://www.w3.org/2000/svg">
<g clip-path="url(#clip0_111_497)">
<path d="M9 4L5.5 0H0L7 8.5L12.7605 6.125L9 4Z" fill="#55ACEE"/>
<path d="M12.5 0L9 4L11.695 7.656L12.3085 6.9115L18 0H12.5Z" fill="#3B88C3"/>
<path d="M11.6025 8.013C11.6425 7.9045 11.668 7.789 11.668 7.6665C11.668 7.40129 11.5626 7.14693 11.3751 6.9594C11.1875 6.77186 10.9332 6.6665 10.668 6.6665H7.33447C7.06925 6.6665 6.8149 6.77186 6.62736 6.9594C6.43983 7.14693 6.33447 7.40129 6.33447 7.6665C6.33447 7.789 6.35947 7.9045 6.39997 8.013C4.77097 8.926 3.66797 10.6665 3.66797 12.6665C3.66747 15.612 6.05547 18 9.00097 18C11.9465 18 14.3345 15.612 14.3345 12.6665C14.3345 10.6665 13.2315 8.926 11.6025 8.013Z" fill="#FFAC33"/>
<path d="M9.70191 9.30005H8.84141L7.47641 10.366C7.44458 10.4063 7.42513 10.4549 7.42041 10.506V11.095C7.42041 11.188 7.49541 11.272 7.58891 11.272H8.48641V15.479C8.48641 15.573 8.56141 15.6565 8.66391 15.6565H9.70191C9.79491 15.6565 9.86991 15.5725 9.86991 15.479V9.47705C9.86991 9.38405 9.79541 9.30005 9.70191 9.30005Z" fill="#9E5200"/>
</g>
<defs>
<clipPath id="clip0_111_497">
<rect width="18" height="18" fill="white"/>
</clipPath>
</defs>
</svg>
