<svg width="18" height="18" viewBox="0 0 18 18" fill="none" xmlns="http://www.w3.org/2000/svg">
<g clip-path="url(#clip0_111_508)">
<path d="M9 4L5.5 0H0L7 8.5L12.7605 6.125L9 4Z" fill="#55ACEE"/>
<path d="M12.5 0L9 4L11.695 7.656L12.3085 6.9115L18 0H12.5Z" fill="#3B88C3"/>
<path d="M11.6025 8.013C11.6425 7.9045 11.668 7.789 11.668 7.6665C11.668 7.40129 11.5626 7.14693 11.3751 6.9594C11.1875 6.77186 10.9332 6.6665 10.668 6.6665H7.33447C7.06925 6.6665 6.8149 6.77186 6.62736 6.9594C6.43983 7.14693 6.33447 7.40129 6.33447 7.6665C6.33447 7.789 6.35947 7.9045 6.39997 8.013C4.77097 8.926 3.66797 10.6665 3.66797 12.6665C3.66747 15.612 6.05547 18 9.00097 18C11.9465 18 14.3345 15.612 14.3345 12.6665C14.3345 10.6665 13.2315 8.926 11.6025 8.013Z" fill="#CCD6DD"/>
<path d="M11.001 14.4605H9.22952C9.66852 13.8435 10.4355 12.8435 10.7345 12.31C10.959 11.8705 11.099 11.5905 11.099 11.095C11.099 10.057 10.314 9.20654 8.97702 9.20654C7.86452 9.20654 7.10702 10.1225 7.10702 10.1225C7.04152 10.1975 7.05102 10.3095 7.11652 10.366L7.68702 10.9455C7.70384 10.9633 7.72411 10.9775 7.74659 10.9872C7.76907 10.9968 7.79329 11.0018 7.81777 11.0018C7.84225 11.0018 7.86646 10.9968 7.88895 10.9872C7.91143 10.9775 7.9317 10.9633 7.94852 10.9455C8.12602 10.749 8.47202 10.478 8.85502 10.478C9.37852 10.478 9.67802 10.7955 9.67802 11.151C9.67802 11.4125 9.55652 11.6745 9.43502 11.8615C8.88302 12.7025 7.49952 14.582 6.95752 15.2925V15.4795C6.95752 15.5735 7.03202 15.657 7.13502 15.657H11.001C11.0475 15.6552 11.0916 15.6359 11.1245 15.603C11.1574 15.5701 11.1767 15.526 11.1785 15.4795V14.6385C11.1771 14.5919 11.158 14.5474 11.125 14.5144C11.0921 14.4813 11.0477 14.462 11.001 14.4605Z" fill="#627077"/>
</g>
<defs>
<clipPath id="clip0_111_508">
<rect width="18" height="18" fill="white"/>
</clipPath>
</defs>
</svg>
