<svg width="18" height="18" viewBox="0 0 18 18" fill="none" xmlns="http://www.w3.org/2000/svg">
<g clip-path="url(#clip0_111_519)">
<path d="M9 4L5.5 0H0L7 8.5L12.7605 6.125L9 4Z" fill="#55ACEE"/>
<path d="M12.5 0L9 4L11.695 7.656L12.3085 6.9115L18 0H12.5Z" fill="#3B88C3"/>
<path d="M11.6025 8.013C11.6425 7.9045 11.668 7.789 11.668 7.6665C11.668 7.40129 11.5626 7.14693 11.3751 6.9594C11.1875 6.77186 10.9332 6.6665 10.668 6.6665H7.33447C7.06925 6.6665 6.8149 6.77186 6.62736 6.9594C6.43983 7.14693 6.33447 7.40129 6.33447 7.6665C6.33447 7.789 6.35947 7.9045 6.39997 8.013C4.77097 8.926 3.66797 10.6665 3.66797 12.6665C3.66747 15.612 6.05547 18 9.00097 18C11.9465 18 14.3345 15.612 14.3345 12.6665C14.3345 10.6665 13.2315 8.926 11.6025 8.013Z" fill="#FF8A3B"/>
<path d="M7.06044 14.675L7.64944 14.086C7.67882 14.054 7.71918 14.0343 7.76247 14.0308C7.80575 14.0273 7.84877 14.0402 7.88294 14.067C7.88294 14.067 8.46244 14.4975 8.91094 14.4975C9.31344 14.4975 9.72494 14.161 9.72494 13.7495C9.72494 13.338 9.30394 12.9925 8.61244 12.9925H8.29294C8.24642 12.9909 8.20227 12.9716 8.16941 12.9387C8.13654 12.9057 8.11743 12.8615 8.11594 12.815V12.039C8.11594 11.936 8.19994 11.8615 8.29294 11.8615H8.61244C9.26694 11.8615 9.61244 11.544 9.61244 11.142C9.61244 10.7395 9.26694 10.441 8.86444 10.441C8.45294 10.441 8.19144 10.656 8.05144 10.8145C7.98544 10.8895 7.87394 10.8895 7.79944 10.8245L7.22894 10.2635C7.15344 10.1975 7.16294 10.086 7.22894 10.0205C7.22894 10.0205 7.99544 9.19751 9.01394 9.19751C10.0984 9.19751 11.0334 9.86151 11.0334 10.9085C11.0334 11.628 10.4909 12.161 10.0704 12.357V12.3855C10.5099 12.5725 11.2014 13.152 11.2014 13.956C11.2014 14.975 10.3134 15.742 9.02294 15.742C7.84594 15.742 7.24694 15.162 7.05094 14.91C6.99444 14.843 7.00444 14.74 7.06044 14.675Z" fill="#7C4119"/>
</g>
<defs>
<clipPath id="clip0_111_519">
<rect width="18" height="18" fill="white"/>
</clipPath>
</defs>
</svg>
