<svg width="20" height="20" viewBox="0 0 20 20" fill="none" xmlns="http://www.w3.org/2000/svg">
<path d="M5 7.8552H0.715481C0.322176 7.8552 0.0041841 8.17326 0 8.57083V19.2844C0 19.6819 0.322176 20 0.715481 20H5C5.39749 20 5.71548 19.6778 5.71548 19.2844V8.57083C5.71548 8.17326 5.39331 7.8552 5 7.8552ZM12.1423 0H7.85774C7.46444 0 7.14226 0.318058 7.14226 0.711446V19.2844C7.14226 19.6819 7.46444 20 7.85774 20H12.1423C12.5397 20 12.8577 19.6778 12.8577 19.2844V0.715631C12.8577 0.318058 12.5356 0 12.1423 0ZM19.2845 5.71249H15C14.6025 5.71249 14.2845 6.03055 14.2845 6.42812V19.2844C14.2845 19.6819 14.6067 20 15 20H19.2845C19.682 20 20 19.6778 20 19.2844V6.42812C20 6.03055 19.6778 5.71249 19.2845 5.71249Z" fill="#9B9B9B"/>
</svg>
