<svg width="21" height="21" viewBox="0 0 21 21" fill="none" xmlns="http://www.w3.org/2000/svg">
<path d="M18.8332 8.83325V14.6666C18.8332 15.3296 18.5698 15.9655 18.1009 16.4344C17.6321 16.9032 16.9962 17.1666 16.3332 17.1666H4.6665C4.00346 17.1666 3.36758 16.9032 2.89874 16.4344C2.4299 15.9655 2.1665 15.3296 2.1665 14.6666V8.83325H18.8332ZM15.4998 12.1666H12.9998C12.7788 12.1666 12.5669 12.2544 12.4106 12.4107C12.2543 12.5669 12.1665 12.7789 12.1665 12.9999C12.1665 13.2209 12.2543 13.4329 12.4106 13.5892C12.5669 13.7455 12.7788 13.8333 12.9998 13.8333H15.4998C15.7209 13.8333 15.9328 13.7455 16.0891 13.5892C16.2454 13.4329 16.3332 13.2209 16.3332 12.9999C16.3332 12.7789 16.2454 12.5669 16.0891 12.4107C15.9328 12.2544 15.7209 12.1666 15.4998 12.1666ZM16.3332 3.83325C16.9962 3.83325 17.6321 4.09664 18.1009 4.56549C18.5698 5.03433 18.8332 5.67021 18.8332 6.33325V7.16659H2.1665V6.33325C2.1665 5.67021 2.4299 5.03433 2.89874 4.56549C3.36758 4.09664 4.00346 3.83325 4.6665 3.83325H16.3332Z" fill="#151E27"/>
</svg>
