<svg width="16" height="16" viewBox="0 0 16 16" fill="none" xmlns="http://www.w3.org/2000/svg">
<path d="M9.06663 10.6667C9.40245 11.1144 9.87063 11.4451 10.4049 11.612C10.9391 11.7789 11.5123 11.7735 12.0432 11.5965C12.5742 11.4195 13.036 11.0799 13.3633 10.6259C13.6905 10.1718 13.8666 9.62634 13.8666 9.06665C13.8666 8.46505 13.6597 7.91572 13.3237 7.46985L13.3333 7.46665L7.99997 1.06665L2.66663 7.46665L2.67623 7.46985C2.32588 7.92862 2.13521 8.4894 2.1333 9.06665C2.1333 9.62634 2.3094 10.1718 2.63665 10.6259C2.96391 11.0799 3.42573 11.4195 3.95669 11.5965C4.48766 11.7735 5.06085 11.7789 5.59508 11.612C6.12931 11.4451 6.59749 11.1144 6.9333 10.6667L7.46663 9.95625V12.2667C7.46663 13.8667 4.79997 13.8667 4.79997 13.8667C4.65852 13.8667 4.52286 13.9228 4.42284 14.0229C4.32282 14.1229 4.26663 14.2585 4.26663 14.4C4.26663 14.5414 4.32282 14.6771 4.42284 14.7771C4.52286 14.8771 4.65852 14.9333 4.79997 14.9333H11.2C11.3414 14.9333 11.4771 14.8771 11.5771 14.7771C11.6771 14.6771 11.7333 14.5414 11.7333 14.4C11.7333 14.2585 11.6771 14.1229 11.5771 14.0229C11.4771 13.9228 11.3414 13.8667 11.2 13.8667C11.2 13.8667 8.5333 13.8667 8.5333 12.2667V9.95625L9.06663 10.6667Z" fill="#9B9B9B"/>
</svg>
