<svg width="13" height="14" viewBox="0 0 13 14" fill="none" xmlns="http://www.w3.org/2000/svg">
<path d="M11 0.5H2C1.46974 0.500579 0.961373 0.711479 0.586426 1.08643C0.211479 1.46137 0.000579017 1.96974 0 2.5V11.5C0.000579017 12.0303 0.211479 12.5386 0.586426 12.9136C0.961373 13.2885 1.46974 13.4994 2 13.5H11C11.5303 13.4994 12.0386 13.2885 12.4136 12.9136C12.7885 12.5386 12.9994 12.0303 13 11.5V2.5C12.9994 1.96974 12.7885 1.46137 12.4136 1.08643C12.0386 0.711479 11.5303 0.500579 11 0.5ZM9.88281 4.82156L5.68281 9.82156C5.63674 9.87644 5.57941 9.92077 5.51471 9.95156C5.45001 9.98234 5.37945 9.99886 5.30781 10H5.29938C5.22929 9.99997 5.16 9.98522 5.09599 9.95668C5.03198 9.92815 4.97468 9.88648 4.92781 9.83438L3.12781 7.83438C3.0821 7.78589 3.04654 7.72876 3.02322 7.66633C2.9999 7.60391 2.9893 7.53745 2.99203 7.47087C2.99477 7.40429 3.01078 7.33892 3.03914 7.27862C3.06749 7.21831 3.10761 7.16429 3.15715 7.11971C3.20668 7.07514 3.26463 7.04091 3.32757 7.01905C3.39052 6.99719 3.45721 6.98813 3.52371 6.9924C3.59021 6.99668 3.65518 7.01421 3.71481 7.04396C3.77444 7.0737 3.82752 7.11507 3.87094 7.16562L5.28625 8.73812L9.11719 4.17844C9.20312 4.07909 9.3247 4.01754 9.45564 4.00711C9.58658 3.99668 9.71637 4.03819 9.81695 4.12268C9.91753 4.20717 9.98083 4.32784 9.99315 4.45862C10.0055 4.5894 9.96584 4.71977 9.88281 4.82156Z" fill="url(#paint0_linear_230_3547)"/>
<defs>
<linearGradient id="paint0_linear_230_3547" x1="0.761724" y1="2.89303" x2="11.282" y2="5.44846" gradientUnits="userSpaceOnUse">
<stop stop-color="#FECD0C"/>
<stop offset="1" stop-color="#E8AB05"/>
</linearGradient>
</defs>
</svg>
