<svg width="22" height="21" viewBox="0 0 22 21" fill="none" xmlns="http://www.w3.org/2000/svg">
<path d="M14.1724 10.5627L10.9998 4.94287L7.82715 10.5627L10.9998 11.7794L14.1724 10.5627Z" fill="#151E27"/>
<path d="M11 2.625C9.44248 2.625 7.91993 3.08686 6.62489 3.95218C5.32985 4.81749 4.32049 6.0474 3.72445 7.48637C3.12841 8.92534 2.97246 10.5087 3.27632 12.0363C3.58018 13.5639 4.3302 14.9671 5.43154 16.0685C6.53288 17.1698 7.93607 17.9198 9.46367 18.2237C10.9913 18.5275 12.5747 18.3716 14.0136 17.7756C15.4526 17.1795 16.6825 16.1702 17.5478 14.8751C18.4131 13.5801 18.875 12.0575 18.875 10.5C18.8726 8.41217 18.0421 6.41054 16.5658 4.93422C15.0895 3.4579 13.0878 2.62743 11 2.625ZM7.06907 10.5715L10.7142 4.11403C10.7453 4.06657 10.7877 4.0276 10.8376 4.00062C10.8875 3.97365 10.9433 3.95952 11 3.95952C11.0567 3.95952 11.1126 3.97365 11.1624 4.00062C11.2123 4.0276 11.2547 4.06657 11.2858 4.11403L14.9313 10.5715C14.9545 10.6126 14.9686 10.6582 14.9726 10.7052C14.9766 10.7522 14.9705 10.7996 14.9545 10.844C14.9386 10.8884 14.9132 10.9289 14.8802 10.9626C14.8472 10.9963 14.8073 11.0225 14.7633 11.0394L11.1175 12.4359C11.0419 12.4653 10.9581 12.4653 10.8825 12.4359L7.23707 11.0385C7.19301 11.0215 7.15312 10.9953 7.12012 10.9616C7.08712 10.9279 7.06178 10.8874 7.04583 10.843C7.02988 10.7986 7.0237 10.7513 7.02771 10.7042C7.03172 10.6572 7.04583 10.6116 7.06907 10.5705V10.5715ZM15.5038 12.0274L11.2481 16.9395C11.2173 16.975 11.1792 17.0036 11.1364 17.0231C11.0936 17.0427 11.0471 17.0528 11 17.0528C10.9529 17.0528 10.9064 17.0427 10.8636 17.0231C10.8208 17.0036 10.7827 16.975 10.7519 16.9395L6.49616 12.0274C6.44816 11.9721 6.42003 11.9024 6.41624 11.8293C6.41245 11.7562 6.43322 11.6839 6.47525 11.6239C6.51727 11.564 6.57814 11.5198 6.64817 11.4985C6.7182 11.4771 6.79336 11.4798 6.86169 11.506L11 13.0922L15.1383 11.5064C15.2067 11.4801 15.2818 11.4774 15.3518 11.4988C15.4219 11.5201 15.4827 11.5643 15.5248 11.6243C15.5668 11.6842 15.5876 11.7565 15.5838 11.8296C15.58 11.9027 15.5518 11.9721 15.5038 12.0274Z" fill="#151E27"/>
<path d="M10.8826 13.7486L7.8501 12.5876L11.0001 16.2233L14.1501 12.5876L11.1176 13.7486C11.042 13.7778 10.9582 13.7778 10.8826 13.7486Z" fill="#151E27"/>
<path d="M11 1.3125C9.18289 1.3125 7.40658 1.85134 5.8957 2.86087C4.38483 3.87041 3.20724 5.3053 2.51186 6.9841C1.81648 8.66289 1.63454 10.5102 1.98904 12.2924C2.34354 14.0746 3.21857 15.7116 4.50346 16.9965C5.78836 18.2814 7.42541 19.1565 9.20761 19.511C10.9898 19.8655 12.8371 19.6835 14.5159 18.9881C16.1947 18.2928 17.6296 17.1152 18.6391 15.6043C19.6487 14.0934 20.1875 12.3171 20.1875 10.5C20.1847 8.06418 19.2159 5.72891 17.4935 4.00653C15.7711 2.28414 13.4358 1.31528 11 1.3125ZM11 19.0312C9.31268 19.0312 7.66325 18.5309 6.2603 17.5935C4.85734 16.656 3.76387 15.3236 3.11816 13.7648C2.47245 12.2059 2.3035 10.4905 2.63268 8.83564C2.96186 7.18074 3.77438 5.66061 4.9675 4.4675C6.16062 3.27438 7.68074 2.46186 9.33564 2.13268C10.9905 1.8035 12.7059 1.97244 14.2648 2.61815C15.8237 3.26386 17.1561 4.35733 18.0935 5.76029C19.0309 7.16325 19.5313 8.81268 19.5313 10.5C19.5286 12.7618 18.629 14.9303 17.0296 16.5296C15.4303 18.129 13.2618 19.0286 11 19.0312Z" fill="#151E27"/>
</svg>
