<svg width="50" height="40" viewBox="0 0 50 40" fill="none" xmlns="http://www.w3.org/2000/svg">
<rect width="50" height="40" rx="4" fill="#151E27"/>
<path d="M19.3745 8.125C19.3745 7.43464 18.8149 6.875 18.1245 6.875C17.4342 6.875 16.8745 7.43464 16.8745 8.125V9.375C16.8745 10.0654 17.4342 10.625 18.1245 10.625C18.8149 10.625 19.3745 10.0654 19.3745 9.375V8.125Z" fill="white"/>
<path d="M33.1248 8.125C33.1248 7.43464 32.5652 6.875 31.8748 6.875C31.1845 6.875 30.6248 7.43464 30.6248 8.125V9.375C30.6248 10.0654 31.1845 10.625 31.8748 10.625C32.5652 10.625 33.1248 10.0654 33.1248 9.375V8.125Z" fill="white"/>
<path d="M12.4997 16.25V30.625C12.4997 31.288 12.7631 31.9239 13.2319 32.3928C13.7008 32.8616 14.3367 33.125 14.9997 33.125H34.9997C35.6627 33.125 36.2986 32.8616 36.7675 32.3928C37.2363 31.9239 37.4997 31.288 37.4997 30.625V16.25H12.4997ZM19.9997 28.75C19.9997 29.0815 19.868 29.3995 19.6336 29.6339C19.3992 29.8683 19.0812 30 18.7497 30H17.4997C17.1682 30 16.8502 29.8683 16.6158 29.6339C16.3814 29.3995 16.2497 29.0815 16.2497 28.75V27.5C16.2497 27.1685 16.3814 26.8505 16.6158 26.6161C16.8502 26.3817 17.1682 26.25 17.4997 26.25H18.7497C19.0812 26.25 19.3992 26.3817 19.6336 26.6161C19.868 26.8505 19.9997 27.1685 19.9997 27.5V28.75ZM19.9997 21.875C19.9997 22.2065 19.868 22.5245 19.6336 22.7589C19.3992 22.9933 19.0812 23.125 18.7497 23.125H17.4997C17.1682 23.125 16.8502 22.9933 16.6158 22.7589C16.3814 22.5245 16.2497 22.2065 16.2497 21.875V20.625C16.2497 20.2935 16.3814 19.9755 16.6158 19.7411C16.8502 19.5067 17.1682 19.375 17.4997 19.375H18.7497C19.0812 19.375 19.3992 19.5067 19.6336 19.7411C19.868 19.9755 19.9997 20.2935 19.9997 20.625V21.875ZM26.8747 28.75C26.8747 29.0815 26.743 29.3995 26.5086 29.6339C26.2742 29.8683 25.9562 30 25.6247 30H24.3747C24.0432 30 23.7252 29.8683 23.4908 29.6339C23.2564 29.3995 23.1247 29.0815 23.1247 28.75V27.5C23.1247 27.1685 23.2564 26.8505 23.4908 26.6161C23.7252 26.3817 24.0432 26.25 24.3747 26.25H25.6247C25.9562 26.25 26.2742 26.3817 26.5086 26.6161C26.743 26.8505 26.8747 27.1685 26.8747 27.5V28.75ZM26.8747 21.875C26.8747 22.2065 26.743 22.5245 26.5086 22.7589C26.2742 22.9933 25.9562 23.125 25.6247 23.125H24.3747C24.0432 23.125 23.7252 22.9933 23.4908 22.7589C23.2564 22.5245 23.1247 22.2065 23.1247 21.875V20.625C23.1247 20.2935 23.2564 19.9755 23.4908 19.7411C23.7252 19.5067 24.0432 19.375 24.3747 19.375H25.6247C25.9562 19.375 26.2742 19.5067 26.5086 19.7411C26.743 19.9755 26.8747 20.2935 26.8747 20.625V21.875ZM33.7497 28.75C33.7497 29.0815 33.618 29.3995 33.3836 29.6339C33.1492 29.8683 32.8312 30 32.4997 30H31.2497C30.9182 30 30.6002 29.8683 30.3658 29.6339C30.1314 29.3995 29.9997 29.0815 29.9997 28.75V27.5C29.9997 27.1685 30.1314 26.8505 30.3658 26.6161C30.6002 26.3817 30.9182 26.25 31.2497 26.25H32.4997C32.8312 26.25 33.1492 26.3817 33.3836 26.6161C33.618 26.8505 33.7497 27.1685 33.7497 27.5V28.75ZM33.7497 21.875C33.7497 22.2065 33.618 22.5245 33.3836 22.7589C33.1492 22.9933 32.8312 23.125 32.4997 23.125H31.2497C30.9182 23.125 30.6002 22.9933 30.3658 22.7589C30.1314 22.5245 29.9997 22.2065 29.9997 21.875V20.625C29.9997 20.2935 30.1314 19.9755 30.3658 19.7411C30.6002 19.5067 30.9182 19.375 31.2497 19.375H32.4997C32.8312 19.375 33.1492 19.5067 33.3836 19.7411C33.618 19.9755 33.7497 20.2935 33.7497 20.625V21.875ZM37.4997 15V11.25C37.4997 10.587 37.2363 9.95107 36.7675 9.48223C36.2986 9.01339 35.6627 8.75 34.9997 8.75H34.3747V9.375C34.3747 10.7538 33.2534 11.875 31.8747 11.875C30.4959 11.875 29.3747 10.7538 29.3747 9.375V8.75H20.6247V9.375C20.6247 10.7538 19.5034 11.875 18.1247 11.875C16.7459 11.875 15.6247 10.7538 15.6247 9.375V8.75H14.9997C14.3367 8.75 13.7008 9.01339 13.2319 9.48223C12.7631 9.95107 12.4997 10.587 12.4997 11.25V15H37.4997Z" fill="url(#paint0_linear_229_1518)"/>
<path d="M41.6111 30.5556C41.6111 27.2127 38.8984 24.5 35.5556 24.5C32.2127 24.5 29.5 27.2127 29.5 30.5556C29.5 33.8984 32.2127 36.6111 35.5556 36.6111C38.8984 36.6111 41.6111 33.8984 41.6111 30.5556Z" fill="white" stroke="#151E27"/>
<path d="M38.59 28.55C38.0023 28.5485 36.9519 28.5513 36.3542 28.55C36.3547 28.6751 36.352 29.9882 36.3542 30.3041H38.8633C38.8995 30.304 38.9342 30.2908 38.9599 30.2674C38.9855 30.2439 38.9999 30.2121 39 30.179V28.9253C38.9997 28.8259 38.9564 28.7306 38.8796 28.6603C38.8027 28.5899 38.6986 28.5503 38.59 28.55ZM35.1023 30.5543H35.8977V34H35.1023V30.5543ZM35.9578 28.2998V28.1083C35.9572 28.016 35.9168 27.9275 35.8454 27.8622C35.7741 27.7968 35.6775 27.7599 35.5765 27.7593H35.4235C35.3477 27.7594 35.2737 27.7801 35.2109 27.8189C35.1481 27.8577 35.0993 27.9127 35.0709 27.977C35.041 28.0823 35.0313 28.1915 35.0422 28.2998C35.1966 28.3 35.9578 28.2998 35.9578 28.2998ZM34.6458 30.3041V28.55H32.41C32.3014 28.5503 32.1973 28.5899 32.1204 28.6603C32.0436 28.7306 32.0003 28.8259 32 28.9253V30.179C32.0001 30.2121 32.0145 30.2439 32.0401 30.2674C32.0658 30.2908 32.1005 30.304 32.1367 30.3041H34.6458ZM36.171 30.5543V34H38.3413C38.45 33.9999 38.5542 33.9604 38.6311 33.89C38.708 33.8196 38.7512 33.7242 38.7513 33.6247V30.5543H36.171ZM32.2487 30.5543V33.6247C32.2488 33.7242 32.292 33.8196 32.3689 33.89C32.4458 33.9604 32.55 33.9999 32.6587 34H34.829V30.5543H32.2487ZM35.0258 27.6329C34.7623 27.4522 33.8668 26.7909 33.3366 27.0661C33.2609 27.1038 33.1942 27.155 33.1404 27.2167C33.0867 27.2784 33.047 27.3493 33.0236 27.4252C33.0095 27.5512 32.8532 27.7424 33.0482 27.7305C33.589 27.8168 34.2624 27.9522 34.7688 28.2134C34.7539 28.1046 34.7697 27.9942 34.8146 27.8925C34.8596 27.7909 34.9323 27.7015 35.0258 27.6329ZM34.3356 28.2998C33.9567 28.1695 33.5655 28.0711 33.1671 28.0058C33.0715 27.9895 32.9813 27.9745 32.8979 27.962C32.8812 28.0739 32.8784 28.1873 32.8897 28.2998H34.3356ZM36.2312 28.2034C36.689 27.957 37.3422 27.8143 37.7823 27.7393C37.8862 27.7205 37.9777 27.7067 38.0529 27.6967C38.0002 27.4564 37.9258 27.185 37.6634 27.0661C37.1329 26.791 36.2383 27.452 35.9742 27.6329C36.0664 27.7002 36.1384 27.7879 36.1833 27.8877C36.2283 27.9875 36.2448 28.0962 36.2312 28.2034ZM34.9192 28.55C34.9192 28.55 34.9188 30.171 34.9192 30.3041H36.0808C36.0821 30.2703 36.0812 28.6976 36.0808 28.55C36.0137 28.5496 34.9192 28.55 34.9192 28.55ZM37.9053 27.9732C37.4705 28.0419 37.0446 28.1513 36.6343 28.2998H38.1103C38.1217 28.1814 38.1185 28.0622 38.1007 27.9444C38.0365 27.952 37.973 27.9637 37.9053 27.9732Z" fill="#151E27"/>
<defs>
<linearGradient id="paint0_linear_229_1518" x1="13.9645" y1="13.2369" x2="34.1374" y2="18.2627" gradientUnits="userSpaceOnUse">
<stop stop-color="#FECD0C"/>
<stop offset="1" stop-color="#E8AB05"/>
</linearGradient>
</defs>
</svg>
