<svg width="18" height="18" viewBox="0 0 18 18" fill="none" xmlns="http://www.w3.org/2000/svg">
<path d="M4.5 4.125V9.75H7.7865C8.0115 9.75 8.12475 9.75 8.2155 9.80625C8.3055 9.86175 8.3565 9.963 8.457 10.1648L8.793 10.8352C8.8935 11.0377 8.94375 11.1383 9.0345 11.1938C9.12525 11.25 9.23775 11.25 9.4635 11.25H13.125C13.302 11.25 13.3905 11.25 13.4452 11.1953C13.5 11.1405 13.5 11.052 13.5 10.875V5.625C13.5 5.448 13.5 5.3595 13.4452 5.30475C13.3905 5.25 13.302 5.25 13.125 5.25H9.4635C9.2385 5.25 9.12525 5.25 9.0345 5.19375C8.9445 5.13825 8.8935 5.037 8.793 4.83525L8.457 4.16475C8.3565 3.96225 8.30625 3.86175 8.2155 3.80625C8.12475 3.75 8.01225 3.75 7.7865 3.75H4.875C4.698 3.75 4.6095 3.75 4.55475 3.80475C4.5 3.8595 4.5 3.948 4.5 4.125Z" fill="#FECD3D"/>
<path d="M4.5 9.75V4.125C4.5 3.948 4.5 3.8595 4.55475 3.80475C4.6095 3.75 4.698 3.75 4.875 3.75H7.7865C8.0115 3.75 8.12475 3.75 8.2155 3.80625C8.3055 3.86175 8.3565 3.963 8.457 4.16475L8.793 4.83525C8.8935 5.03775 8.94375 5.13825 9.0345 5.19375C9.12525 5.25 9.23775 5.25 9.4635 5.25H13.125C13.302 5.25 13.3905 5.25 13.4453 5.30475C13.5 5.3595 13.5 5.448 13.5 5.625V10.875C13.5 11.052 13.5 11.1405 13.4453 11.1953C13.3905 11.25 13.302 11.25 13.125 11.25H9.4635C9.2385 11.25 9.12525 11.25 9.0345 11.1938C8.9445 11.1383 8.8935 11.037 8.793 10.8352L8.457 10.1648C8.3565 9.96225 8.30625 9.86175 8.2155 9.80625C8.12475 9.75 8.01225 9.75 7.7865 9.75H4.5ZM4.5 9.75V14.25" stroke="#FECD3D" stroke-width="2" stroke-linecap="round"/>
</svg>
