<svg width="9" height="9" viewBox="0 0 9 9" fill="none" xmlns="http://www.w3.org/2000/svg">
<path d="M7.33096 4.12387C7.16033 3.73984 6.91228 3.39515 6.60234 3.11137L6.34658 2.8767C6.3379 2.86895 6.32745 2.86345 6.31614 2.86068C6.30484 2.85792 6.29302 2.85797 6.28174 2.86083C6.27046 2.86369 6.26006 2.86928 6.25144 2.87711C6.24282 2.88493 6.23626 2.89475 6.23232 2.9057L6.11807 3.23353C6.04688 3.4392 5.91592 3.64926 5.73047 3.8558C5.71816 3.86898 5.7041 3.8725 5.69443 3.87338C5.68477 3.87426 5.66982 3.8725 5.65664 3.86019C5.64434 3.84965 5.63818 3.83383 5.63906 3.81801C5.67158 3.28891 5.51338 2.69213 5.16709 2.04262C4.88057 1.50297 4.48242 1.08197 3.98496 0.788417L3.62197 0.574843C3.57451 0.546718 3.51387 0.583632 3.5165 0.639003L3.53584 1.06088C3.54902 1.34916 3.51562 1.60404 3.43652 1.81586C3.33984 2.07514 3.20098 2.31596 3.02344 2.53217C2.89989 2.68243 2.75985 2.81834 2.60596 2.93734C2.23533 3.22225 1.93396 3.58732 1.72441 4.00521C1.51539 4.42675 1.40651 4.89085 1.40625 5.36137C1.40625 5.77621 1.48799 6.17787 1.64971 6.55668C1.80586 6.9214 2.0312 7.2524 2.31328 7.53139C2.59805 7.81264 2.92852 8.03412 3.29678 8.18793C3.67822 8.34789 4.08252 8.42875 4.5 8.42875C4.91748 8.42875 5.32178 8.34789 5.70322 8.18881C6.07058 8.0359 6.40463 7.8129 6.68672 7.53226C6.97148 7.25101 7.19473 6.9223 7.35029 6.55756C7.51177 6.17978 7.5946 5.77308 7.59375 5.36225C7.59375 4.93334 7.50586 4.51674 7.33096 4.12387Z" fill="#FE9923"/>
</svg>
