<svg width="19" height="22" viewBox="0 0 19 22" fill="none" xmlns="http://www.w3.org/2000/svg">
<path d="M11.7103 14.3862C11.7103 14.1848 11.5509 14.0616 11.3561 14.1122C11.3561 14.1122 10.4437 14.3494 9.77025 14.3494C9.09684 14.3494 8.1844 14.1122 8.1844 14.1122C7.98958 14.0616 7.83018 14.1848 7.83018 14.3862V15.4476C7.83047 15.5446 7.86913 15.6375 7.9377 15.7061C8.00627 15.7746 8.0992 15.8133 8.19618 15.8136H11.3443C11.4413 15.8133 11.5342 15.7746 11.6028 15.7061C11.6714 15.6375 11.71 15.5446 11.7103 15.4476V14.3862ZM15.3343 0.732146C15.3343 0.327851 15.0064 0 14.6022 0H4.93833C4.53404 0 4.20619 0.327851 4.20619 0.732146V6.77205C4.20619 8.66256 4.76848 10.3834 5.78944 11.6176C6.81714 12.8599 8.23092 13.5441 9.77025 13.5441C11.3096 13.5441 12.7233 12.86 13.751 11.6176C14.772 10.3834 15.3343 8.66256 15.3343 6.77205V0.732146ZM3.5096 8.23901C2.50775 7.8662 2.04642 7.00153 2.04642 5.56413V2.29399H3.40086V0.829775H1.31442C0.910052 0.829775 0.582275 1.15755 0.582275 1.56192V5.56405C0.582275 8.0056 1.75175 9.49286 3.90212 9.84026C3.72545 9.33219 3.59315 8.79619 3.5096 8.23901ZM4.93833 16.9118C4.53404 16.9118 4.20619 17.2396 4.20619 17.6439V21.2679C4.20619 21.6721 4.53404 22 4.93833 22H14.6022C15.0065 22 15.3344 21.6721 15.3344 21.2679V17.6439C15.3344 17.2396 15.0065 16.9118 14.6022 16.9118H4.93833ZM18.2261 0.829775H16.1396V2.29399H17.494V5.56405C17.494 7.00146 17.0327 7.86612 16.0308 8.23893C15.9473 8.79612 15.815 9.33219 15.6383 9.84026C17.7887 9.49286 18.9581 8.0056 18.9581 5.56405V1.56192C18.9582 1.15755 18.6304 0.829775 18.2261 0.829775Z" fill="#9B9B9B"/>
</svg>
