<svg width="20" height="20" viewBox="0 0 20 20" fill="none" xmlns="http://www.w3.org/2000/svg">
<path d="M10 0C4.49167 0 0 4.49167 0 10C0 15.5167 4.49167 20 10 20C15.5167 20 20 15.5167 20 10C20 4.49167 15.5167 0 10 0ZM14.9417 9.55833L12.9333 11.0167L13.7 13.375C13.8417 13.8333 13.6833 14.325 13.3 14.6C12.9167 14.8833 12.3917 14.8833 12.0083 14.6L10 13.1417L8 14.6C7.59 14.89 7.09833 14.8875 6.70833 14.6C6.325 14.325 6.15833 13.8333 6.30833 13.375L7.075 11.0167L5.06667 9.55833C4.88062 9.42132 4.74206 9.22958 4.67034 9.00994C4.59862 8.7903 4.59733 8.55374 4.66667 8.33333C4.81667 7.88333 5.23333 7.575 5.70833 7.575H8.19167L8.95833 5.21667C9.10833 4.75833 9.525 4.45833 10 4.45833H10.0083C10.4833 4.45833 10.9 4.75833 11.05 5.21667L11.8167 7.575H14.2917C14.775 7.575 15.1917 7.88333 15.3417 8.33333C15.4833 8.78333 15.325 9.275 14.9417 9.55833Z" fill="#FECD3D"/>
</svg>
