<svg width="120" height="40" viewBox="0 0 120 40" fill="none" xmlns="http://www.w3.org/2000/svg">
<path d="M0.705623 24.0755L5.09999 23.1358C5.22896 24.2597 5.92911 24.8217 7.20044 24.8217C7.82689 24.8217 8.32437 24.7111 8.69287 24.49C9.06137 24.2505 9.24562 23.9741 9.24562 23.6609C9.24562 23.3293 9.04294 23.0713 8.63759 22.8871C8.23224 22.7028 7.72555 22.583 7.11753 22.5278C6.52793 22.4725 5.88305 22.3619 5.1829 22.1961C4.48275 22.0303 3.82866 21.8276 3.22064 21.5881C2.63104 21.3486 2.13356 20.9248 1.72821 20.3168C1.32286 19.7087 1.12019 18.9441 1.12019 18.0229C1.12019 16.6963 1.70057 15.5908 2.86135 14.7064C4.04055 13.8035 5.48691 13.3521 7.20044 13.3521C8.95082 13.3521 10.3972 13.7298 11.5395 14.4853C12.6819 15.2407 13.3544 16.2633 13.5571 17.553L9.1627 18.4927C9.03373 17.3688 8.37964 16.8068 7.20044 16.8068C6.73981 16.8068 6.35289 16.9081 6.03966 17.1108C5.72644 17.2951 5.56983 17.5346 5.56983 17.8294C5.56983 18.1795 5.7725 18.4558 6.17785 18.6585C6.5832 18.8612 7.08068 18.9994 7.67028 19.0731C8.2783 19.1284 8.93239 19.2389 9.63254 19.4047C10.3327 19.5706 10.9776 19.7824 11.5672 20.0404C12.1752 20.2799 12.6819 20.7037 13.0872 21.3117C13.4926 21.9197 13.6953 22.6844 13.6953 23.6056C13.6953 24.9138 13.0596 26.0193 11.7883 26.9221C10.5354 27.825 9.00609 28.2764 7.20044 28.2764C5.37636 28.2764 3.88394 27.8987 2.72316 27.1432C1.58081 26.3878 0.908298 25.3652 0.705623 24.0755ZM17.1467 17.4977H14.383V13.6285H17.1467V9.75924L21.5687 8.37736V13.6285H25.0234V17.4977H21.5687V22.4725C21.5687 23.578 22.1215 24.1307 23.227 24.1307H25.0234V28H23.227C19.1735 28 17.1467 26.0654 17.1467 22.1961V17.4977Z" fill="url(#paint0_linear_2007_1238)"/>
<path d="M52.5416 13.6285V15.342C53.1864 14.5129 53.9603 13.9417 54.8631 13.6285C55.7659 13.2968 56.7148 13.2968 57.7098 13.6285V17.7741C56.2358 17.2029 55.0013 17.1477 54.0064 17.6083C53.0298 18.0505 52.5416 18.852 52.5416 20.0128V28H48.1196V13.6285H52.5416Z" fill="#ECB107"/>
<path d="M58.0084 24.0755L62.4028 23.1358C62.5318 24.2597 63.2319 24.8217 64.5032 24.8217C65.1297 24.8217 65.6272 24.7111 65.9957 24.49C66.3642 24.2505 66.5484 23.9741 66.5484 23.6609C66.5484 23.3293 66.3457 23.0713 65.9404 22.8871C65.535 22.7028 65.0284 22.583 64.4203 22.5278C63.8307 22.4725 63.1859 22.3619 62.4857 22.1961C61.7855 22.0303 61.1315 21.8276 60.5234 21.5881C59.9338 21.3486 59.4364 20.9248 59.031 20.3168C58.6257 19.7087 58.423 18.9441 58.423 18.0229C58.423 16.6963 59.0034 15.5908 60.1641 14.7064C61.3433 13.8035 62.7897 13.3521 64.5032 13.3521C66.2536 13.3521 67.7 13.7298 68.8423 14.4853C69.9847 15.2407 70.6572 16.2633 70.8599 17.553L66.4655 18.4927C66.3365 17.3688 65.6824 16.8068 64.5032 16.8068C64.0426 16.8068 63.6557 16.9081 63.3425 17.1108C63.0292 17.2951 62.8726 17.5346 62.8726 17.8294C62.8726 18.1795 63.0753 18.4558 63.4807 18.6585C63.886 18.8612 64.3835 18.9994 64.9731 19.0731C65.5811 19.1284 66.2352 19.2389 66.9353 19.4047C67.6355 19.5706 68.2804 19.7824 68.87 20.0404C69.478 20.2799 69.9847 20.7037 70.39 21.3117C70.7954 21.9197 70.9981 22.6844 70.9981 23.6056C70.9981 24.9138 70.3624 26.0193 69.0911 26.9221C67.8382 27.825 66.3089 28.2764 64.5032 28.2764C62.6792 28.2764 61.1867 27.8987 60.026 27.1432C58.8836 26.3878 58.2111 25.3652 58.0084 24.0755Z" fill="url(#paint1_linear_2007_1238)"/>
<path d="M84.129 13.3521C86.0452 13.3521 87.6482 14.0707 88.9379 15.5078C90.2461 16.9266 90.9002 18.6954 90.9002 20.8142C90.9002 22.9331 90.2461 24.7111 88.9379 26.1483C87.6482 27.567 86.0452 28.2764 84.129 28.2764C82.4892 28.2764 81.1165 27.7236 80.011 26.6181V28H75.589V7.54824H80.011V15.0104C81.1165 13.9049 82.4892 13.3521 84.129 13.3521ZM80.8954 23.274C81.5034 23.9189 82.2589 24.2413 83.1617 24.2413C84.0645 24.2413 84.8107 23.9189 85.4003 23.274C86.0084 22.6107 86.3124 21.7908 86.3124 20.8142C86.3124 19.8377 86.0084 19.027 85.4003 18.3821C84.8107 17.7188 84.0645 17.3872 83.1617 17.3872C82.2589 17.3872 81.5034 17.7188 80.8954 18.3821C80.3058 19.027 80.011 19.8377 80.011 20.8142C80.011 21.7908 80.3058 22.6107 80.8954 23.274ZM100.153 13.3521C102.64 13.3521 104.621 14.2549 106.095 16.0606C107.569 17.8662 108.066 19.9851 107.587 22.4172H97.1681C97.426 23.0621 97.8406 23.578 98.4118 23.9649C99.0014 24.3334 99.6739 24.5177 100.429 24.5177C101.774 24.5177 102.779 23.9833 103.442 22.9147L107.035 24.5729C106.353 25.6969 105.432 26.5997 104.271 27.2814C103.11 27.9447 101.784 28.2764 100.291 28.2764C98.0986 28.2764 96.2561 27.567 94.7636 26.1483C93.2896 24.7111 92.5526 22.9331 92.5526 20.8142C92.5526 18.6954 93.2804 16.9266 94.736 15.5078C96.1916 14.0707 97.9972 13.3521 100.153 13.3521ZM100.153 17.1108C99.5081 17.1108 98.9277 17.2951 98.4118 17.6636C97.8959 18.0136 97.4997 18.4927 97.2234 19.1007H103.11C102.576 17.7741 101.59 17.1108 100.153 17.1108ZM111.092 17.4977H108.329V13.6285H111.092V9.75924L115.514 8.37736V13.6285H118.969V17.4977H115.514V22.4725C115.514 23.578 116.067 24.1307 117.173 24.1307H118.969V28H117.173C113.119 28 111.092 26.0654 111.092 22.1961V17.4977Z" fill="white"/>
<path d="M41.7481 20.4803L45.6583 16.9628C46.3162 16.3718 45.9662 15.244 45.1016 15.17L39.9618 14.7293C39.7833 14.7141 39.6123 14.6478 39.4674 14.5377C39.3226 14.4276 39.2096 14.2779 39.1407 14.105L37.1512 9.12803C36.8166 8.29066 35.6836 8.29066 35.349 9.12803L33.3595 14.105C33.2906 14.2779 33.1775 14.4276 33.0327 14.5377C32.8879 14.6478 32.7169 14.7141 32.5384 14.7293L27.3981 15.17C26.5339 15.244 26.184 16.3718 26.8413 16.9628L29.2162 19.0992C29.4352 19.2965 29.6907 19.4445 29.9668 19.534C30.2428 19.6235 30.5336 19.6525 30.8209 19.6193L36.1382 19.0101C36.5754 18.9601 36.7566 19.579 36.3676 19.7938L31.5947 22.4293C31.3283 22.5761 31.0951 22.7809 30.9109 23.03C30.7267 23.2791 30.5957 23.5667 30.5268 23.8733L29.8782 26.7396C29.6786 27.6221 30.8542 27.9769 31.5947 27.5056L35.7426 25.0445C36.0541 24.8459 36.4456 24.8459 36.7576 25.0445L41.1636 27.8481C41.9046 28.3194 42.8211 27.6226 42.622 26.7396L41.4345 21.49C41.3931 21.3078 41.4005 21.1172 41.4558 20.9391C41.5111 20.761 41.6122 20.6023 41.7481 20.4803Z" fill="#ECB107"/>
<defs>
<linearGradient id="paint0_linear_2007_1238" x1="1.52345" y1="7.36318" x2="23.2634" y2="10.7957" gradientUnits="userSpaceOnUse">
<stop stop-color="#FECD0C"/>
<stop offset="1" stop-color="#E8AB05"/>
</linearGradient>
<linearGradient id="paint1_linear_2007_1238" x1="57.8789" y1="7.36318" x2="70.6281" y2="8.5245" gradientUnits="userSpaceOnUse">
<stop stop-color="#FECD0C"/>
<stop offset="1" stop-color="#E8AB05"/>
</linearGradient>
</defs>
</svg>
