<svg width="14" height="14" viewBox="0 0 14 14" fill="none" xmlns="http://www.w3.org/2000/svg">
<path d="M4.37492 6.41672C5.50075 6.41672 6.41658 5.50089 6.41658 4.37505C6.41658 3.24922 5.50075 2.33339 4.37492 2.33339C3.24909 2.33339 2.33325 3.24922 2.33325 4.37505C2.33325 5.50089 3.24909 6.41672 4.37492 6.41672ZM4.37492 3.50005C4.85909 3.50005 5.24992 3.89089 5.24992 4.37505C5.24992 4.85922 4.85909 5.25005 4.37492 5.25005C3.89075 5.25005 3.49992 4.85922 3.49992 4.37505C3.49992 3.89089 3.89075 3.50005 4.37492 3.50005ZM2.33442 10.8401L10.8441 2.33105L11.6689 3.15589L3.15984 11.665L2.33442 10.8401ZM9.62492 7.58339C8.49908 7.58339 7.58325 8.49922 7.58325 9.62505C7.58325 10.7509 8.49908 11.6667 9.62492 11.6667C10.7508 11.6667 11.6666 10.7509 11.6666 9.62505C11.6666 8.49922 10.7508 7.58339 9.62492 7.58339ZM9.62492 10.5001C9.14075 10.5001 8.74992 10.1092 8.74992 9.62505C8.74992 9.14089 9.14075 8.75005 9.62492 8.75005C10.1091 8.75005 10.4999 9.14089 10.4999 9.62505C10.4999 10.1092 10.1091 10.5001 9.62492 10.5001Z" fill="#757990"/>
</svg>
