<svg width="24" height="24" viewBox="0 0 24 24" fill="none" xmlns="http://www.w3.org/2000/svg">
<path d="M12 2C10.845 2 9.73735 2.4795 8.92066 3.33301C8.10397 4.18652 7.64516 5.34413 7.64516 6.55118C7.64516 7.75823 8.10397 8.91584 8.92066 9.76935C9.73735 10.6229 10.845 11.1024 12 11.1024C13.155 11.1024 14.2626 10.6229 15.0793 9.76935C15.896 8.91584 16.3548 7.75823 16.3548 6.55118C16.3548 5.34413 15.896 4.18652 15.0793 3.33301C14.2626 2.4795 13.155 2 12 2ZM7.35484 13.5297C6.19986 13.5297 5.09219 14.0091 4.2755 14.8627C3.45881 15.7162 3 16.8738 3 18.0808V19.5226C3 20.4377 3.63406 21.2169 4.49806 21.3637C9.46606 22.2121 14.5339 22.2121 19.5019 21.3637C19.9198 21.2919 20.2997 21.0674 20.574 20.7303C20.8483 20.3931 20.9993 19.9652 21 19.5226V18.0808C21 16.8738 20.5412 15.7162 19.7245 14.8627C18.9078 14.0091 17.8001 13.5297 16.6452 13.5297H16.2503C16.0335 13.5305 15.823 13.5653 15.6186 13.634L14.6129 13.9775C12.9151 14.5568 11.0849 14.5568 9.3871 13.9775L8.38142 13.634C8.17758 13.5657 7.96491 13.5305 7.75084 13.5297H7.35484Z" fill="#9B9B9B"/>
</svg>
