<svg width="16" height="17" viewBox="0 0 16 17" fill="none" xmlns="http://www.w3.org/2000/svg">
<path d="M1.55992 10.2534C1.95992 10.1067 2.37325 10.0334 2.81325 10.0334C3.70658 10.0334 4.48659 10.3134 5.15325 10.8734L3.05992 12.9667C2.36523 12.1845 1.85291 11.2577 1.55992 10.2534ZM10.3733 7.03338C11.6866 8.01338 13.1066 8.25339 14.6266 7.75339C14.6466 7.89338 14.6666 8.14672 14.6666 8.50005C14.6666 9.18672 14.4999 9.95339 14.1866 10.8001C13.8733 11.6401 13.4866 12.3201 13.0333 12.8334L8.81325 8.62672L10.3733 7.03338ZM5.84659 11.5934C6.55325 12.6134 6.69992 13.7267 6.27992 14.9401C5.33325 14.6667 4.48659 14.2401 3.77992 13.6534L5.84659 11.5934ZM8.12658 9.31339L12.3333 13.5334C10.8866 14.8001 9.18658 15.3334 7.25325 15.1267C7.39325 14.6867 7.46658 14.2067 7.46658 13.6867C7.46658 13.2734 7.37325 12.7867 7.18658 12.2334C6.99992 11.6801 6.77992 11.2267 6.53325 10.8734L8.12658 9.31339ZM5.87325 10.1667C5.26562 9.62355 4.52096 9.25698 3.71992 9.10672C2.90659 8.95338 2.12659 9.00005 1.37325 9.25339C1.35325 9.10672 1.33325 8.85338 1.33325 8.50005C1.33325 7.81339 1.49992 7.04672 1.81325 6.20005C2.12659 5.36005 2.51325 4.68005 2.96659 4.16672L7.40658 8.62672L5.87325 10.1667ZM10.3733 5.65338C9.47992 4.55338 9.27325 3.35338 9.75325 2.06005C10.1666 2.16672 10.6399 2.36672 11.1733 2.67338C11.6999 2.97338 12.1333 3.27338 12.4666 3.56005L10.3733 5.65338ZM14.4399 6.75338C14.0399 6.89338 13.6266 6.96672 13.1866 6.96672C12.4599 6.96672 11.7599 6.75339 11.0933 6.31339L13.1533 4.28005C13.7399 5.01338 14.1666 5.83338 14.4399 6.75338ZM8.12658 7.90672L3.66659 3.46672C5.11325 2.20005 6.81325 1.66672 8.75325 1.87338C8.60659 2.31338 8.53325 2.79338 8.53325 3.31338C8.53325 3.79338 8.63992 4.33338 8.85992 4.94005C9.07992 5.54005 9.33325 6.02005 9.66658 6.37338L8.12658 7.90672Z" fill="#9B9B9B"/>
</svg>
