<svg width="21" height="21" viewBox="0 0 21 21" fill="none" xmlns="http://www.w3.org/2000/svg">
<path fill-rule="evenodd" clip-rule="evenodd" d="M13.5203 14.4568L13.9022 19.5581C13.9293 19.9168 13.6104 20.1631 13.3256 20.0035C11.3074 18.873 4.98595 14.7211 1.7817 5.59571C1.6347 5.17702 2.02976 4.79946 2.36664 5.03571C4.25926 6.36133 8.39539 9.10008 10.9517 9.62246C10.9517 9.62246 9.31458 8.48496 8.33501 6.74021C8.288 6.65639 8.26488 6.56128 8.2682 6.46523C8.27152 6.36919 8.30114 6.27589 8.35383 6.19552L11.9269 1.04527C12.1386 0.740335 12.5735 0.866772 12.6496 1.25571L13.7622 6.91565L18.9833 11.4726C19.245 11.701 19.1916 12.1626 18.8893 12.2846L13.5203 14.4568ZM4.28726 12.4461C4.61801 12.9076 5.33026 13.8566 5.98782 14.4367C6.11907 14.5526 6.10157 14.7469 5.95107 14.8414L2.47601 17.0228C2.26689 17.154 1.9847 16.9983 2.0197 16.7708C2.18158 15.7282 2.64708 13.5547 3.82439 12.4137C3.95564 12.2868 4.18226 12.3 4.28726 12.4461Z" fill="#151E27"/>
</svg>
