<svg width="19" height="18" viewBox="0 0 19 18" fill="none" xmlns="http://www.w3.org/2000/svg">
<path d="M7.25 12C7.4625 12 7.64075 11.928 7.78475 11.784C7.92875 11.64 8.0005 11.462 8 11.25V6.75C8 6.5375 7.928 6.3595 7.784 6.216C7.64 6.0725 7.462 6.0005 7.25 6C7.038 5.9995 6.86 6.0715 6.716 6.216C6.572 6.3605 6.5 6.5385 6.5 6.75V11.25C6.5 11.4625 6.572 11.6407 6.716 11.7847C6.86 11.9288 7.038 12.0005 7.25 12ZM10.3813 11.4188L13.3063 9.46875C13.4813 9.35625 13.5688 9.2 13.5688 9C13.5688 8.8 13.4813 8.64375 13.3063 8.53125L10.3813 6.58125C10.1938 6.45625 10 6.44675 9.8 6.55275C9.6 6.65875 9.5 6.8245 9.5 7.05V10.95C9.5 11.175 9.6 11.3407 9.8 11.4472C10 11.5538 10.1938 11.5443 10.3813 11.4188ZM9.5 16.5C8.4625 16.5 7.4875 16.303 6.575 15.909C5.6625 15.515 4.86875 14.9808 4.19375 14.3063C3.51875 13.6318 2.9845 12.838 2.591 11.925C2.1975 11.012 2.0005 10.037 2 9C1.9995 7.963 2.1965 6.988 2.591 6.075C2.9855 5.162 3.51975 4.36825 4.19375 3.69375C4.86775 3.01925 5.6615 2.485 6.575 2.091C7.4885 1.697 8.4635 1.5 9.5 1.5C10.5365 1.5 11.5115 1.697 12.425 2.091C13.3385 2.485 14.1323 3.01925 14.8063 3.69375C15.4803 4.36825 16.0148 5.162 16.4098 6.075C16.8048 6.988 17.0015 7.963 17 9C16.9985 10.037 16.8015 11.012 16.409 11.925C16.0165 12.838 15.4823 13.6318 14.8063 14.3063C14.1303 14.9808 13.3365 15.5152 12.425 15.9097C11.5135 16.3042 10.5385 16.501 9.5 16.5Z" fill="#FECD3D"/>
</svg>
