<svg width="9" height="10" viewBox="0 0 9 10" fill="none" xmlns="http://www.w3.org/2000/svg">
<path d="M7.24812 5.91887L8.85918 4.46964C9.13022 4.22615 8.98603 3.7615 8.62978 3.73098L6.51215 3.54942C6.43862 3.54317 6.36816 3.51586 6.30849 3.47049C6.24882 3.42512 6.20224 3.36344 6.17387 3.29221L5.35418 1.24166C5.21633 0.896661 4.7495 0.896661 4.61165 1.24166L3.79196 3.29221C3.76359 3.36344 3.71701 3.42512 3.65734 3.47049C3.59767 3.51586 3.52721 3.54317 3.45368 3.54942L1.33584 3.73098C0.979802 3.7615 0.83561 4.22615 1.10645 4.46964L2.08492 5.34984C2.17514 5.43114 2.2804 5.49213 2.39415 5.529C2.50789 5.56587 2.62768 5.57783 2.74604 5.56414L4.93683 5.31313C5.11696 5.29256 5.19159 5.54755 5.03133 5.63601L3.06487 6.72188C2.95511 6.78234 2.85904 6.86674 2.78313 6.96937C2.70723 7.072 2.65327 7.19047 2.6249 7.31679L2.35766 8.49776C2.27541 8.86134 2.65323 9.14862 2.95831 8.95444L4.77382 7.79935C4.90215 7.71752 5.06347 7.71752 5.19202 7.79935L7.00731 8.95444C7.3126 9.14862 7.69021 8.86156 7.60818 8.49776L7.11894 6.33486C7.10189 6.2598 7.10492 6.18128 7.12771 6.1079C7.15049 6.03452 7.19215 5.96912 7.24812 5.91887Z" fill="#FE9923"/>
</svg>
