<svg width="32" height="32" viewBox="0 0 32 32" fill="none" xmlns="http://www.w3.org/2000/svg">
<rect width="32" height="32" rx="4" fill="url(#paint0_linear_2007_1252)"/>
<path d="M20.9553 13.5098H26.4651V10.9517C26.4651 9.32412 25.141 8 23.5134 8H8.95169C7.32412 8 6 9.32412 6 10.9517V21.9714C6 23.5989 7.32412 24.9231 8.95169 24.9231H23.5134C25.141 24.9231 26.4651 23.5989 26.4651 21.9714V19.4132H20.9553C19.3277 19.4132 18.0036 18.0891 18.0036 16.4615C18.0036 14.834 19.3277 13.5098 20.9553 13.5098Z" fill="white"/>
<path d="M20.9554 14.6906C19.9788 14.6906 19.1843 15.485 19.1843 16.4616C19.1843 17.4382 19.9788 18.2326 20.9554 18.2326H26.4652V14.6906L20.9554 14.6906ZM21.7425 17.0519H20.9554C20.6293 17.0519 20.365 16.7876 20.365 16.4616C20.365 16.1356 20.6294 15.8713 20.9554 15.8713H21.7425C22.0685 15.8713 22.3328 16.1356 22.3328 16.4616C22.3328 16.7876 22.0685 17.0519 21.7425 17.0519Z" fill="white"/>
<defs>
<linearGradient id="paint0_linear_2007_1252" x1="1.87501" y1="5.89055" x2="27.771" y2="12.1808" gradientUnits="userSpaceOnUse">
<stop stop-color="#FECD0C"/>
<stop offset="1" stop-color="#E8AB05"/>
</linearGradient>
</defs>
</svg>
